<?xml version="1.0" encoding="iso-8859-1"?>
<svg xmlns="http://www.w3.org/2000/svg" xmlns:xlink="http://www.w3.org/1999/xlink" version="1.1" width="1080" height="1080" viewBox="0 0 1080 1080" xml:space="preserve">
<g transform="matrix(15.02 0 0 11.8 540 540)" id="730dbb63-05a9-4834-9978-62dd61e082eb">
<rect style="stroke: rgb(0,0,0); stroke-width: 0; stroke-dasharray: none; stroke-linecap: butt; stroke-dashoffset: 0; stroke-linejoin: miter; stroke-miterlimit: 4; fill: rgb(255,255,255); fill-rule: nonzero; opacity: 1;" vector-effect="non-scaling-stroke" x="-33.0835" y="-33.0835" rx="0" ry="0" width="66.167" height="66.167"/>
</g>
    <g transform="matrix(4.76 0 0 4.03 771 684.45)" id="da537b9c-a505-4204-8f8f-b8fc713032b1">
<polygon style="stroke: rgb(0,0,0); stroke-width: 0; stroke-dasharray: none; stroke-linecap: butt; stroke-dashoffset: 0; stroke-linejoin: miter; stroke-miterlimit: 4; fill: rgb(101,101,101); fill-rule: nonzero; opacity: 1;" vector-effect="non-scaling-stroke" points="-37.43,32.41 0,-32.41 37.43,32.41 "/>
</g>
    <g transform="matrix(6.81 0 0 5.77 385.86 627.97)">
<polygon style="stroke: rgb(0,0,0); stroke-width: 0; stroke-dasharray: none; stroke-linecap: butt; stroke-dashoffset: 0; stroke-linejoin: miter; stroke-miterlimit: 4; fill: rgb(101,101,101); fill-rule: nonzero; opacity: 1;" vector-effect="non-scaling-stroke" points="-37.43,32.41 0,-32.41 37.43,32.41 "/>
</g>
    <g transform="matrix(3.13 0 0 3.13 911.88 237.88)" id="a99fa9e2-c23c-40c3-ae35-60627ba58835">
<path style="stroke: rgb(101,101,101); stroke-width: 2; stroke-dasharray: none; stroke-linecap: butt; stroke-dashoffset: 0; stroke-linejoin: miter; stroke-miterlimit: 4; fill: rgb(101,101,101); fill-rule: nonzero; opacity: 1;" vector-effect="non-scaling-stroke" transform=" translate(-50, -50)" d="M 50 92.875 C 26.358 92.875 7.125 73.642 7.125 50 C 7.125 26.358000000000004 26.358 7.125 50 7.125 C 73.642 7.125 92.875 26.358 92.875 50 C 92.875 73.642 73.642 92.875 50 92.875 z M 50 9.125 C 27.461 9.125 9.125 27.461 9.125 50 C 9.125 72.538 27.461 90.875 50 90.875 C 72.538 90.875 90.875 72.538 90.875 50 C 90.875 27.461 72.538 9.125 50 9.125 z" stroke-linecap="round"/>
</g>
    <g transform="matrix(1.67 -1.67 1.67 1.67 911.91 237.77)" id="fc678fd5-7da3-45a7-9390-c00799fdba05">
<path style="stroke: rgb(0,0,0); stroke-width: 0; stroke-dasharray: none; stroke-linecap: butt; stroke-dashoffset: 0; stroke-linejoin: miter; stroke-miterlimit: 4; fill: rgb(101,101,101); fill-rule: nonzero; opacity: 1;" vector-effect="non-scaling-stroke" transform=" translate(-50, -50)" d="M 16.28 19.945 L 19.957 16.32 C 22.060000000000002 14.166 25.578000000000003 14.166 27.681 16.32 L 50.007000000000005 38.595 L 72.333 16.32 C 74.43599999999999 14.166 77.954 14.166 80.054 16.32 L 83.68 19.945 C 85.834 22.046 85.834 25.566000000000003 83.68 27.668 L 61.405 49.993 L 83.68 72.32 C 85.834 74.422 85.834 77.939 83.68 80.04299999999999 L 80.054 83.72099999999999 C 77.95400000000001 85.82 74.436 85.82 72.333 83.72099999999999 L 50.007 61.393 L 27.681 83.721 C 25.578 85.82000000000001 22.060000000000002 85.82000000000001 19.957 83.721 L 16.28 80.043 C 14.180000000000001 77.93900000000001 14.180000000000001 74.42200000000001 16.28 72.32000000000001 L 38.606 49.99300000000001 L 16.28 27.667 C 14.18 25.566 14.18 22.046 16.28 19.945 z" stroke-linecap="round"/>
</g>
</svg>
